<svg width="121" height="37" viewBox="0 0 121 37" fill="none" xmlns="http://www.w3.org/2000/svg">
<path d="M7.524 17.18C6.564 17.18 5.67 17.024 4.842 16.712C4.026 16.388 3.312 15.938 2.7 15.362C2.1 14.774 1.632 14.084 1.296 13.292C0.96 12.5 0.792 11.636 0.792 10.7C0.792 9.764 0.96 8.9 1.296 8.108C1.632 7.316 2.106 6.632 2.718 6.056C3.33 5.468 4.044 5.018 4.86 4.706C5.676 4.382 6.57 4.22 7.542 4.22C8.574 4.22 9.516 4.4 10.368 4.76C11.22 5.108 11.94 5.63 12.528 6.326L11.016 7.748C10.56 7.256 10.05 6.89 9.486 6.65C8.922 6.398 8.31 6.272 7.65 6.272C6.99 6.272 6.384 6.38 5.832 6.596C5.292 6.812 4.818 7.118 4.41 7.514C4.014 7.91 3.702 8.378 3.474 8.918C3.258 9.458 3.15 10.052 3.15 10.7C3.15 11.348 3.258 11.942 3.474 12.482C3.702 13.022 4.014 13.49 4.41 13.886C4.818 14.282 5.292 14.588 5.832 14.804C6.384 15.02 6.99 15.128 7.65 15.128C8.31 15.128 8.922 15.008 9.486 14.768C10.05 14.516 10.56 14.138 11.016 13.634L12.528 15.074C11.94 15.758 11.22 16.28 10.368 16.64C9.516 17 8.568 17.18 7.524 17.18ZM18.505 17.126C17.521 17.126 16.645 16.916 15.877 16.496C15.109 16.064 14.503 15.476 14.059 14.732C13.615 13.988 13.393 13.142 13.393 12.194C13.393 11.234 13.615 10.388 14.059 9.656C14.503 8.912 15.109 8.33 15.877 7.91C16.645 7.49 17.521 7.28 18.505 7.28C19.501 7.28 20.383 7.49 21.151 7.91C21.931 8.33 22.537 8.906 22.969 9.638C23.413 10.37 23.635 11.222 23.635 12.194C23.635 13.142 23.413 13.988 22.969 14.732C22.537 15.476 21.931 16.064 21.151 16.496C20.383 16.916 19.501 17.126 18.505 17.126ZM18.505 15.2C19.057 15.2 19.549 15.08 19.981 14.84C20.413 14.6 20.749 14.252 20.989 13.796C21.241 13.34 21.367 12.806 21.367 12.194C21.367 11.57 21.241 11.036 20.989 10.592C20.749 10.136 20.413 9.788 19.981 9.548C19.549 9.308 19.063 9.188 18.523 9.188C17.971 9.188 17.479 9.308 17.047 9.548C16.627 9.788 16.291 10.136 16.039 10.592C15.787 11.036 15.661 11.57 15.661 12.194C15.661 12.806 15.787 13.34 16.039 13.796C16.291 14.252 16.627 14.6 17.047 14.84C17.479 15.08 17.965 15.2 18.505 15.2ZM25.7865 17V3.644H28.0365V17H25.7865ZM35.3097 17.126C34.3257 17.126 33.4497 16.916 32.6817 16.496C31.9137 16.064 31.3077 15.476 30.8637 14.732C30.4197 13.988 30.1977 13.142 30.1977 12.194C30.1977 11.234 30.4197 10.388 30.8637 9.656C31.3077 8.912 31.9137 8.33 32.6817 7.91C33.4497 7.49 34.3257 7.28 35.3097 7.28C36.3057 7.28 37.1877 7.49 37.9557 7.91C38.7357 8.33 39.3417 8.906 39.7737 9.638C40.2177 10.37 40.4397 11.222 40.4397 12.194C40.4397 13.142 40.2177 13.988 39.7737 14.732C39.3417 15.476 38.7357 16.064 37.9557 16.496C37.1877 16.916 36.3057 17.126 35.3097 17.126ZM35.3097 15.2C35.8617 15.2 36.3537 15.08 36.7857 14.84C37.2177 14.6 37.5537 14.252 37.7937 13.796C38.0457 13.34 38.1717 12.806 38.1717 12.194C38.1717 11.57 38.0457 11.036 37.7937 10.592C37.5537 10.136 37.2177 9.788 36.7857 9.548C36.3537 9.308 35.8677 9.188 35.3277 9.188C34.7757 9.188 34.2837 9.308 33.8517 9.548C33.4317 9.788 33.0957 10.136 32.8437 10.592C32.5917 11.036 32.4657 11.57 32.4657 12.194C32.4657 12.806 32.5917 13.34 32.8437 13.796C33.0957 14.252 33.4317 14.6 33.8517 14.84C34.2837 15.08 34.7697 15.2 35.3097 15.2ZM42.5912 17V7.388H44.7332V10.034L44.4812 9.26C44.7692 8.612 45.2192 8.12 45.8312 7.784C46.4552 7.448 47.2292 7.28 48.1532 7.28V9.422C48.0572 9.398 47.9672 9.386 47.8832 9.386C47.7992 9.374 47.7152 9.368 47.6312 9.368C46.7792 9.368 46.1012 9.62 45.5972 10.124C45.0932 10.616 44.8412 11.354 44.8412 12.338V17H42.5912Z" fill="black"/>
<path d="M58.9764 17.18C58.1004 17.18 57.3144 17.036 56.6184 16.748C55.9224 16.46 55.3764 16.064 54.9804 15.56C54.5844 15.056 54.3864 14.474 54.3864 13.814C54.3864 13.214 54.5184 12.674 54.7824 12.194C55.0464 11.714 55.4664 11.258 56.0424 10.826C56.6184 10.382 57.3564 9.938 58.2564 9.494C58.9644 9.146 59.5164 8.84 59.9124 8.576C60.3204 8.312 60.6024 8.06 60.7584 7.82C60.9264 7.58 61.0104 7.328 61.0104 7.064C61.0104 6.704 60.8844 6.416 60.6324 6.2C60.3804 5.972 60.0204 5.858 59.5524 5.858C59.0484 5.858 58.6524 5.984 58.3644 6.236C58.0884 6.476 57.9504 6.794 57.9504 7.19C57.9504 7.394 57.9864 7.592 58.0584 7.784C58.1424 7.976 58.2864 8.192 58.4904 8.432C58.6944 8.672 58.9884 8.978 59.3724 9.35L66.0324 15.74L64.7904 17.198L57.5904 10.286C57.1824 9.89 56.8524 9.524 56.6004 9.188C56.3484 8.852 56.1684 8.528 56.0604 8.216C55.9524 7.892 55.8984 7.562 55.8984 7.226C55.8984 6.638 56.0484 6.122 56.3484 5.678C56.6484 5.222 57.0744 4.874 57.6264 4.634C58.1784 4.382 58.8204 4.256 59.5524 4.256C60.2364 4.256 60.8244 4.37 61.3164 4.598C61.8204 4.814 62.2104 5.132 62.4864 5.552C62.7744 5.96 62.9184 6.452 62.9184 7.028C62.9184 7.532 62.7924 8 62.5404 8.432C62.2884 8.852 61.8924 9.254 61.3524 9.638C60.8244 10.022 60.1164 10.424 59.2284 10.844C58.5684 11.168 58.0464 11.474 57.6624 11.762C57.2784 12.05 57.0024 12.338 56.8344 12.626C56.6664 12.914 56.5824 13.232 56.5824 13.58C56.5824 13.928 56.6844 14.234 56.8884 14.498C57.1044 14.762 57.4044 14.972 57.7884 15.128C58.1724 15.272 58.6224 15.344 59.1384 15.344C59.9064 15.344 60.6024 15.176 61.2264 14.84C61.8624 14.492 62.3964 13.976 62.8284 13.292C63.2604 12.608 63.5724 11.762 63.7644 10.754L65.5824 11.348C65.3304 12.56 64.8924 13.604 64.2684 14.48C63.6564 15.344 62.9004 16.01 62.0004 16.478C61.1004 16.946 60.0924 17.18 58.9764 17.18ZM73.024 17V4.4H78.532C79.9 4.4 81.1 4.664 82.132 5.192C83.164 5.72 83.968 6.452 84.544 7.388C85.12 8.324 85.408 9.428 85.408 10.7C85.408 11.96 85.12 13.064 84.544 14.012C83.968 14.948 83.164 15.68 82.132 16.208C81.1 16.736 79.9 17 78.532 17H73.024ZM75.364 15.02H78.424C79.372 15.02 80.188 14.84 80.872 14.48C81.568 14.12 82.102 13.616 82.474 12.968C82.858 12.32 83.05 11.564 83.05 10.7C83.05 9.824 82.858 9.068 82.474 8.432C82.102 7.784 81.568 7.28 80.872 6.92C80.188 6.56 79.372 6.38 78.424 6.38H75.364V15.02ZM87.6791 17V7.388H89.8211V10.034L89.5691 9.26C89.8571 8.612 90.3071 8.12 90.9191 7.784C91.5431 7.448 92.3171 7.28 93.2411 7.28V9.422C93.1451 9.398 93.0551 9.386 92.9711 9.386C92.8871 9.374 92.8031 9.368 92.7191 9.368C91.8671 9.368 91.1891 9.62 90.6851 10.124C90.1811 10.616 89.9291 11.354 89.9291 12.338V17H87.6791ZM95.1498 17V7.388H97.3998V17H95.1498ZM96.2838 5.804C95.8638 5.804 95.5158 5.672 95.2398 5.408C94.9758 5.144 94.8438 4.826 94.8438 4.454C94.8438 4.07 94.9758 3.752 95.2398 3.5C95.5158 3.236 95.8638 3.104 96.2838 3.104C96.7038 3.104 97.0458 3.23 97.3098 3.482C97.5858 3.722 97.7238 4.028 97.7238 4.4C97.7238 4.796 97.5918 5.132 97.3278 5.408C97.0638 5.672 96.7158 5.804 96.2838 5.804ZM102.909 17L98.787 7.388H101.127L104.673 15.866H103.521L107.193 7.388H109.353L105.231 17H102.909ZM115.014 17.126C113.946 17.126 113.01 16.916 112.206 16.496C111.414 16.064 110.796 15.476 110.352 14.732C109.92 13.988 109.704 13.142 109.704 12.194C109.704 11.234 109.914 10.388 110.334 9.656C110.766 8.912 111.354 8.33 112.098 7.91C112.854 7.49 113.712 7.28 114.672 7.28C115.608 7.28 116.442 7.484 117.174 7.892C117.906 8.3 118.482 8.876 118.902 9.62C119.322 10.364 119.532 11.24 119.532 12.248C119.532 12.344 119.526 12.452 119.514 12.572C119.514 12.692 119.508 12.806 119.496 12.914H111.486V11.42H118.308L117.426 11.888C117.438 11.336 117.324 10.85 117.084 10.43C116.844 10.01 116.514 9.68 116.094 9.44C115.686 9.2 115.212 9.08 114.672 9.08C114.12 9.08 113.634 9.2 113.214 9.44C112.806 9.68 112.482 10.016 112.242 10.448C112.014 10.868 111.9 11.366 111.9 11.942V12.302C111.9 12.878 112.032 13.388 112.296 13.832C112.56 14.276 112.932 14.618 113.412 14.858C113.892 15.098 114.444 15.218 115.068 15.218C115.608 15.218 116.094 15.134 116.526 14.966C116.958 14.798 117.342 14.534 117.678 14.174L118.884 15.56C118.452 16.064 117.906 16.454 117.246 16.73C116.598 16.994 115.854 17.126 115.014 17.126Z" fill="#F50606"/>
<path d="M30.94 34L34.72 25.6H36.256L40.048 34H38.416L35.164 26.428H35.788L32.548 34H30.94ZM32.68 32.056L33.1 30.832H37.636L38.056 32.056H32.68ZM43.5671 34.084C43.0231 34.084 42.5431 33.984 42.1271 33.784C41.7111 33.576 41.3871 33.264 41.1551 32.848C40.9231 32.424 40.8071 31.892 40.8071 31.252V27.592H42.3071V31.048C42.3071 31.624 42.4351 32.056 42.6911 32.344C42.9551 32.624 43.3271 32.764 43.8071 32.764C44.1591 32.764 44.4631 32.692 44.7191 32.548C44.9831 32.404 45.1871 32.188 45.3311 31.9C45.4831 31.612 45.5591 31.256 45.5591 30.832V27.592H47.0591V34H45.6311V32.272L45.8831 32.8C45.6671 33.216 45.3511 33.536 44.9351 33.76C44.5191 33.976 44.0631 34.084 43.5671 34.084ZM51.4351 34.084C50.7311 34.084 50.1871 33.904 49.8031 33.544C49.4191 33.176 49.2271 32.636 49.2271 31.924V26.176H50.7271V31.888C50.7271 32.192 50.8031 32.428 50.9551 32.596C51.1151 32.764 51.3351 32.848 51.6151 32.848C51.9511 32.848 52.2311 32.76 52.4551 32.584L52.8751 33.652C52.6991 33.796 52.4831 33.904 52.2271 33.976C51.9711 34.048 51.7071 34.084 51.4351 34.084ZM48.1711 28.84V27.64H52.4431V28.84H48.1711ZM56.7781 34.084C56.1221 34.084 55.5381 33.944 55.0261 33.664C54.5141 33.376 54.1101 32.984 53.8141 32.488C53.5181 31.992 53.3701 31.428 53.3701 30.796C53.3701 30.156 53.5181 29.592 53.8141 29.104C54.1101 28.608 54.5141 28.22 55.0261 27.94C55.5381 27.66 56.1221 27.52 56.7781 27.52C57.4421 27.52 58.0301 27.66 58.5421 27.94C59.0621 28.22 59.4661 28.604 59.7541 29.092C60.0501 29.58 60.1981 30.148 60.1981 30.796C60.1981 31.428 60.0501 31.992 59.7541 32.488C59.4661 32.984 59.0621 33.376 58.5421 33.664C58.0301 33.944 57.4421 34.084 56.7781 34.084ZM56.7781 32.8C57.1461 32.8 57.4741 32.72 57.7621 32.56C58.0501 32.4 58.2741 32.168 58.4341 31.864C58.6021 31.56 58.6861 31.204 58.6861 30.796C58.6861 30.38 58.6021 30.024 58.4341 29.728C58.2741 29.424 58.0501 29.192 57.7621 29.032C57.4741 28.872 57.1501 28.792 56.7901 28.792C56.4221 28.792 56.0941 28.872 55.8061 29.032C55.5261 29.192 55.3021 29.424 55.1341 29.728C54.9661 30.024 54.8821 30.38 54.8821 30.796C54.8821 31.204 54.9661 31.56 55.1341 31.864C55.3021 32.168 55.5261 32.4 55.8061 32.56C56.0941 32.72 56.4181 32.8 56.7781 32.8ZM65.0928 34V25.6H68.7648C69.6768 25.6 70.4768 25.776 71.1648 26.128C71.8528 26.48 72.3888 26.968 72.7728 27.592C73.1568 28.216 73.3488 28.952 73.3488 29.8C73.3488 30.64 73.1568 31.376 72.7728 32.008C72.3888 32.632 71.8528 33.12 71.1648 33.472C70.4768 33.824 69.6768 34 68.7648 34H65.0928ZM66.6528 32.68H68.6928C69.3248 32.68 69.8688 32.56 70.3248 32.32C70.7888 32.08 71.1448 31.744 71.3928 31.312C71.6488 30.88 71.7768 30.376 71.7768 29.8C71.7768 29.216 71.6488 28.712 71.3928 28.288C71.1448 27.856 70.7888 27.52 70.3248 27.28C69.8688 27.04 69.3248 26.92 68.6928 26.92H66.6528V32.68ZM77.8749 34.084C77.1629 34.084 76.5389 33.944 76.0029 33.664C75.4749 33.376 75.0629 32.984 74.7669 32.488C74.4789 31.992 74.3349 31.428 74.3349 30.796C74.3349 30.156 74.4749 29.592 74.7549 29.104C75.0429 28.608 75.4349 28.22 75.9309 27.94C76.4349 27.66 77.0069 27.52 77.6469 27.52C78.2709 27.52 78.8269 27.656 79.3149 27.928C79.8029 28.2 80.1869 28.584 80.4669 29.08C80.7469 29.576 80.8869 30.16 80.8869 30.832C80.8869 30.896 80.8829 30.968 80.8749 31.048C80.8749 31.128 80.8709 31.204 80.8629 31.276H75.5229V30.28H80.0709L79.4829 30.592C79.4909 30.224 79.4149 29.9 79.2549 29.62C79.0949 29.34 78.8749 29.12 78.5949 28.96C78.3229 28.8 78.0069 28.72 77.6469 28.72C77.2789 28.72 76.9549 28.8 76.6749 28.96C76.4029 29.12 76.1869 29.344 76.0269 29.632C75.8749 29.912 75.7989 30.244 75.7989 30.628V30.868C75.7989 31.252 75.8869 31.592 76.0629 31.888C76.2389 32.184 76.4869 32.412 76.8069 32.572C77.1269 32.732 77.4949 32.812 77.9109 32.812C78.2709 32.812 78.5949 32.756 78.8829 32.644C79.1709 32.532 79.4269 32.356 79.6509 32.116L80.4549 33.04C80.1669 33.376 79.8029 33.636 79.3629 33.82C78.9309 33.996 78.4349 34.084 77.8749 34.084ZM84.7398 34.084C84.0358 34.084 83.4918 33.904 83.1077 33.544C82.7238 33.176 82.5318 32.636 82.5318 31.924V26.176H84.0318V31.888C84.0318 32.192 84.1078 32.428 84.2598 32.596C84.4198 32.764 84.6398 32.848 84.9198 32.848C85.2558 32.848 85.5358 32.76 85.7598 32.584L86.1798 33.652C86.0038 33.796 85.7878 33.904 85.5318 33.976C85.2758 34.048 85.0118 34.084 84.7398 34.084ZM81.4758 28.84V27.64H85.7478V28.84H81.4758ZM91.3617 34V32.704L91.2777 32.428V30.16C91.2777 29.72 91.1457 29.38 90.8817 29.14C90.6177 28.892 90.2177 28.768 89.6817 28.768C89.3217 28.768 88.9657 28.824 88.6137 28.936C88.2697 29.048 87.9777 29.204 87.7377 29.404L87.1497 28.312C87.4937 28.048 87.9017 27.852 88.3737 27.724C88.8537 27.588 89.3497 27.52 89.8617 27.52C90.7897 27.52 91.5057 27.744 92.0097 28.192C92.5217 28.632 92.7777 29.316 92.7777 30.244V34H91.3617ZM89.3457 34.084C88.8657 34.084 88.4457 34.004 88.0857 33.844C87.7257 33.676 87.4457 33.448 87.2457 33.16C87.0537 32.864 86.9577 32.532 86.9577 32.164C86.9577 31.804 87.0417 31.48 87.2097 31.192C87.3857 30.904 87.6697 30.676 88.0617 30.508C88.4537 30.34 88.9737 30.256 89.6217 30.256H91.4817V31.252H89.7297C89.2177 31.252 88.8737 31.336 88.6977 31.504C88.5217 31.664 88.4337 31.864 88.4337 32.104C88.4337 32.376 88.5417 32.592 88.7577 32.752C88.9737 32.912 89.2737 32.992 89.6577 32.992C90.0257 32.992 90.3537 32.908 90.6417 32.74C90.9377 32.572 91.1497 32.324 91.2777 31.996L91.5297 32.896C91.3857 33.272 91.1257 33.564 90.7497 33.772C90.3817 33.98 89.9137 34.084 89.3457 34.084ZM94.7028 34V27.592H96.2028V34H94.7028ZM95.4588 26.536C95.1788 26.536 94.9468 26.448 94.7628 26.272C94.5868 26.096 94.4988 25.884 94.4988 25.636C94.4988 25.38 94.5868 25.168 94.7628 25C94.9468 24.824 95.1788 24.736 95.4588 24.736C95.7388 24.736 95.9668 24.82 96.1428 24.988C96.3268 25.148 96.4188 25.352 96.4188 25.6C96.4188 25.864 96.3308 26.088 96.1548 26.272C95.9788 26.448 95.7468 26.536 95.4588 26.536ZM98.1715 34V25.096H99.6715V34H98.1715ZM101.64 34V27.592H103.14V34H101.64ZM102.396 26.536C102.116 26.536 101.884 26.448 101.7 26.272C101.524 26.096 101.436 25.884 101.436 25.636C101.436 25.38 101.524 25.168 101.7 25C101.884 24.824 102.116 24.736 102.396 24.736C102.676 24.736 102.904 24.82 103.08 24.988C103.264 25.148 103.356 25.352 103.356 25.6C103.356 25.864 103.268 26.088 103.092 26.272C102.916 26.448 102.684 26.536 102.396 26.536ZM108.745 27.52C109.257 27.52 109.713 27.62 110.113 27.82C110.521 28.02 110.841 28.328 111.073 28.744C111.305 29.152 111.421 29.68 111.421 30.328V34H109.921V30.52C109.921 29.952 109.785 29.528 109.513 29.248C109.249 28.968 108.877 28.828 108.397 28.828C108.045 28.828 107.733 28.9 107.461 29.044C107.189 29.188 106.977 29.404 106.825 29.692C106.681 29.972 106.609 30.328 106.609 30.76V34H105.109V27.592H106.537V29.32L106.285 28.792C106.509 28.384 106.833 28.072 107.257 27.856C107.689 27.632 108.185 27.52 108.745 27.52ZM116.24 36.412C115.648 36.412 115.068 36.332 114.5 36.172C113.94 36.02 113.48 35.796 113.12 35.5L113.792 34.372C114.072 34.604 114.424 34.788 114.848 34.924C115.28 35.068 115.716 35.14 116.156 35.14C116.86 35.14 117.376 34.976 117.704 34.648C118.032 34.328 118.196 33.844 118.196 33.196V32.056L118.316 30.604L118.268 29.152V27.592H119.696V33.028C119.696 34.188 119.4 35.04 118.808 35.584C118.216 36.136 117.36 36.412 116.24 36.412ZM116.048 33.712C115.44 33.712 114.888 33.584 114.392 33.328C113.904 33.064 113.516 32.7 113.228 32.236C112.948 31.772 112.808 31.228 112.808 30.604C112.808 29.988 112.948 29.448 113.228 28.984C113.516 28.52 113.904 28.16 114.392 27.904C114.888 27.648 115.44 27.52 116.048 27.52C116.592 27.52 117.08 27.628 117.512 27.844C117.944 28.06 118.288 28.396 118.544 28.852C118.808 29.308 118.94 29.892 118.94 30.604C118.94 31.316 118.808 31.904 118.544 32.368C118.288 32.824 117.944 33.164 117.512 33.388C117.08 33.604 116.592 33.712 116.048 33.712ZM116.276 32.44C116.652 32.44 116.988 32.364 117.284 32.212C117.58 32.052 117.808 31.836 117.968 31.564C118.136 31.284 118.22 30.964 118.22 30.604C118.22 30.244 118.136 29.928 117.968 29.656C117.808 29.376 117.58 29.164 117.284 29.02C116.988 28.868 116.652 28.792 116.276 28.792C115.9 28.792 115.56 28.868 115.256 29.02C114.96 29.164 114.728 29.376 114.56 29.656C114.4 29.928 114.32 30.244 114.32 30.604C114.32 30.964 114.4 31.284 114.56 31.564C114.728 31.836 114.96 32.052 115.256 32.212C115.56 32.364 115.9 32.44 116.276 32.44Z" fill="black"/>
</svg>
